<?xml version="1.0" encoding="utf-8"?>
<!-- Generator: Adobe Illustrator 25.2.1, SVG Export Plug-In . SVG Version: 6.00 Build 0)  -->
<svg version="1.1" id="Calque_1" xmlns="http://www.w3.org/2000/svg" xmlns:xlink="http://www.w3.org/1999/xlink" x="0px" y="0px"
	 viewBox="0 0 24 24" style="enable-background:new 0 0 24 24;" xml:space="preserve">
<style type="text/css">
	.st0{fill:#020203;}
</style>
<g>
	<path class="st0" d="M22.72,10.85L13.1,2.53c-0.35-0.32-0.8-0.49-1.33-0.49s-0.97,0.16-1.33,0.49L9.33,3.49
		c-0.36,0.32-0.55,0.7-0.55,1.15c0,0.44,0.18,0.83,0.55,1.16l7.17,6.2l-7.17,6.21c-0.36,0.32-0.55,0.7-0.55,1.15
		c0,0.44,0.18,0.83,0.55,1.16l1.12,0.96c0.36,0.32,0.81,0.47,1.33,0.47c0.52,0,0.96-0.16,1.33-0.47l9.61-8.32
		c0.36-0.33,0.55-0.72,0.55-1.16C23.26,11.55,23.08,11.17,22.72,10.85z"/>
</g>
</svg>
